#!OML:ASF F:\VICON\USERDATA\INSTALL\rory3\rory3.ASF
:FULLY-SPECIFIED
:DEGREES
134
root 1.2596615193685907 17.89954460313755 49.27726052177583 -3.3812894321776796 1.0334969121480433 -2.610316359424566
lfemur -12.198253326542702 -3.2377995376969015 -19.381096894894693
ltibia 34.818140915882225
lfoot -6.326799521409215 1.7463032062815946
ltoes -11.769552477700168
rfemur -9.13372184316884 1.9431603342268629 24.511471552433328
rtibia 40.375621143873346
rfoot -8.152174524288169 -9.383323348241962
rtoes 2.714072053348637
lowerback 1.0 0.4929732871466722 2.516967106837093
upperback 0.23042486284180103 1.2995338743231906 1.4392797068681291
thorax -4.852900931988519 0.6913648161614896 -0.08946982510317392
lowerneck -16.588147505824676 -3.330276934733016 -1.464488037065037
upperneck 21.32261107234502 -4.337754758607609 1.1239662079660735
head 9.633940746584686 -2.045387311264764 0.060342324744091236
lclavicle -1.0837355382087142e-15 -4.2207187639067227e-16
lhumerus -31.588920551738834 0.19670453410740446 84.61364433459842
lradius 22.702823901497716
lwrist 7.5706994067980435
lhand -27.070005167539268 23.479565291335305
lfingers nan
lthumb -0.8712414341302817 52.824124157338275
rclavicle -1.1399741574580335e-15 -4.750139394529062e-16
rhumerus -28.228910608669707 -18.81050661030044 -77.98992795251633
rradius 29.262700989274038
rwrist 3.504796124050264
rhand -17.436350058798723 1.0
rfingers nan
rthumb 9.10235087394847 -7.61330342014698
135
root 1.2495717742835217 17.899806008364735 49.753482361137564 -3.3313028364817523 1.0025930931445695 -2.392110572660817
lfemur -10.512931983101437 -3.327377112466345 -19.842284809113163
ltibia 30.913521758043228
lfoot -6.461671760549186 1.3362875604387292
ltoes -11.401494595458356
rfemur -10.313598728390593 1.943108684249844 24.218327342349163
rtibia 41.99983891922121
rfoot -7.804686676615101 -9.31134571501061
rtoes 3.553006004558328
lowerback 1.0 0.41919551375200564 2.250113431483319
upperback 0.23043110916823448 1.1235435927251127 1.3850059379731998
thorax -4.8530416185374055 0.6152409929987612 0.07378871401998677
lowerneck -16.611122798102073 -3.324844178705802 -1.4707071869449686
upperneck 21.280992550223882 -4.334803438108793 1.2359724785243134
head 9.625590434755198 -2.039080070750742 0.11095337613151893
lclavicle -1.0843668967763362e-15 -4.222030194005807e-16
lhumerus -31.92462277814486 0.588594766599671 84.61046035516276
lradius 23.080517524627894
lwrist 7.761331535064994
lhand -27.06324341238723 23.486460674288338
lfingers nan
lthumb -0.8656763193479109 52.82943249070067
rclavicle -1.1394939326200707e-15 -4.740791025495123e-16
rhumerus -28.180435745498308 -18.600224323050366 -78.03444718529545
rradius 29.2796007427018
rwrist 3.882483645640461
rhand -17.462942326485038 1.0
rfingers nan
rthumb 9.132654678827434 -7.535643858454647
136
root 1.2691888370783455 17.91525411866464 51.54612336048265 -3.2537685463158867 1.204195902813967 -1.6104818055267889
lfemur -8.506392795784562 -3.498353028974848 -20.932701287541125
ltibia 27.79978893594675
lfoot -6.002455988687393 0.721233429066586
ltoes -11.230646899870347
rfemur -11.573109246510738 1.748384115320592 23.326698852530576
rtibia 43.54092666669483
rfoot -7.95046535372521 -9.20560672229456
rtoes 4.163944017053183
lowerback 1.0 0.23289285399433962 1.5114016459821222
upperback 0.2564109100717077 0.8013211206489955 1.3151243755667643
thorax -4.858176678219957 0.4591376670906449 0.3700905365403898
lowerneck -16.65672398153686 -3.3103518892797035 -1.459723285618383
upperneck 21.205936303966098 -4.318547864467843 1.3413519169013932
head 9.6087743676454 -2.0268961261071996 0.16083740165989432
lclavicle -1.0851928065369782e-15 -4.219408826937467e-16
lhumerus -32.13003401371252 0.9377080923160506 84.58697738051802
lradius 23.495557075056674
lwrist 7.84783611456219
lhand -27.071807424542445 23.421579463679024
lfingers nan
lthumb -0.8401747768543355 52.845174690143025
rclavicle -1.1434451100623786e-15 -4.7526654607422e-16
rhumerus -28.14929253398713 -18.399475962959414 -78.13701783308525
rradius 29.274244312770698
rwrist 3.940672617077185
rhand -17.45257653664743 1.0
rfingers nan
rthumb 9.123835592530567 -7.544455406124092
137
root 1.2829382892335377 17.929155907240702 52.20120022261401 -3.220889063923049 1.3225589612181108 -0.9942638522739606
lfemur -6.464259985835103 -3.7388829032699915 -22.00869559044223
ltibia 25.750096738939206
lfoot -5.7399971780535655 -0.5176081788608335
ltoes -9.491107732537072
rfemur -13.278000808084363 1.4119332502389557 22.423142626214723
rtibia 45.02553798621229
rfoot -8.357497888709034 -8.910937880527205
rtoes 4.470612080487172
lowerback 1.0 0.05150406654760764 0.8819162780902841
upperback 0.27298804886976 0.4552744552642721 1.2668707258810017
thorax -4.864024379644958 0.2854100667122886 0.6766505761055779
lowerneck -16.71871668983514 -3.290053964971418 -1.4460356254547948
upperneck 21.116137320283563 -4.292561072774512 1.4322534335646608
head 9.58957793888426 -2.0106155510394377 0.20599074773964576
lclavicle -1.086449124858804e-15 -4.215279849281847e-16
lhumerus -32.19786240176151 1.1699085403369207 84.54946985988046
lradius 23.92734511925135
lwrist 7.790272577294752
lhand -27.039303667057126 23.40735621509864
lfingers nan
lthumb -0.7980486647891412 52.869309723631645
rclavicle -1.152817662055644e-15 -4.794420207960144e-16
rhumerus -28.124884761887436 -18.183915768965008 -78.26455118835577
rradius 29.253272018123482
rwrist 3.99466685215068
rhand -17.474066607278875 1.0
rfingers nan
rthumb 9.158617580686183 -7.463753496224021
